<svg width="24" height="24" viewBox="0 0 24 24" fill="none" xmlns="http://www.w3.org/2000/svg">
<path d="M20 17.58C21.0512 17.1196 21.9121 16.3116 22.4381 15.2916C22.964 14.2715 23.1231 13.1016 22.8886 11.9782C22.654 10.8548 22.0402 9.84623 21.15 9.12185C20.2599 8.39748 19.1476 8.00137 18 8.00002H16.74C16.423 6.77254 15.8188 5.63797 14.9773 4.68982C14.1357 3.74167 13.0809 3.00709 11.8997 2.54664C10.7186 2.08618 9.44488 1.91304 8.18365 2.04146C6.92243 2.16989 5.70978 2.59622 4.64567 3.2853C3.58155 3.97439 2.69644 4.9065 2.06328 6.00482C1.43012 7.10313 1.06704 8.33619 1.00398 9.60237C0.940923 10.8685 1.17968 12.1316 1.70058 13.2874C2.22147 14.4432 3.00959 15.4586 3.99997 16.25" stroke="#B97A95" stroke-linecap="round" stroke-linejoin="round"/>
<path d="M8 16H8.01" stroke="#B97A95" stroke-linecap="round" stroke-linejoin="round"/>
<path d="M8 20H8.01" stroke="#B97A95" stroke-linecap="round" stroke-linejoin="round"/>
<path d="M12 18H12.01" stroke="#B97A95" stroke-linecap="round" stroke-linejoin="round"/>
<path d="M12 22H12.01" stroke="#B97A95" stroke-linecap="round" stroke-linejoin="round"/>
<path d="M16 16H16.01" stroke="#B97A95" stroke-linecap="round" stroke-linejoin="round"/>
<path d="M16 20H16.01" stroke="#B97A95" stroke-linecap="round" stroke-linejoin="round"/>
</svg>
